<svg id="Layer_1" data-name="Layer 1" xmlns="http://www.w3.org/2000/svg" viewBox="0 0 1930.09 354.96"><defs><style>.cls-1{fill:#aab4bc;}.cls-2{fill:#d2d6d7;}.cls-3{fill:#9da2ab;}.cls-4{fill:#e7eef1;}.cls-5{fill:#5173f1;}.cls-6{opacity:0.7;}.cls-7{fill:#797f89;}.cls-8{fill:#e3e7e9;}.cls-9{fill:#161622;}.cls-10{fill:#3f4652;}.cls-11{fill:#fff;}</style></defs><title>Detectron2-Logo-Horz</title><path class="cls-1" d="M191.24,31h71.34a4.87,4.87,0,0,1,4.87,4.87v5a0,0,0,0,1,0,0H186.38a0,0,0,0,1,0,0v-5A4.87,4.87,0,0,1,191.24,31Z"/><path class="cls-2" d="M412.92,100.67V263.61c0,.69,0,1.33,0,2a59.73,59.73,0,0,1-59.73,57.74H100.73A59.8,59.8,0,0,1,40.9,263.61V100.67c0-.69,0-1.33,0-2a59.33,59.33,0,0,1,8.79-29.21c.76-1.24,1.57-2.46,2.42-3.64A59.76,59.76,0,0,1,100.73,40.9H353.15a59.78,59.78,0,0,1,59.77,59.77Z"/><rect class="cls-3" x="198.81" y="262.89" width="55.95" height="41.28" rx="10.15"/><path class="cls-4" d="M244.61,260.72H209A12.33,12.33,0,0,0,196.64,273v21A12.33,12.33,0,0,0,209,306.33h35.65A12.32,12.32,0,0,0,256.92,294V273A12.32,12.32,0,0,0,244.61,260.72ZM209,265.05h35.65a8,8,0,0,1,8,8v1.45H201V273A8,8,0,0,1,209,265.05Zm43.63,13.76v9.43H201v-9.43Zm-8,23.19H209a8,8,0,0,1-8-8v-1.44h51.61V294A8,8,0,0,1,244.61,302Z"/><path class="cls-1" d="M382.21,177.18h71.34a4.87,4.87,0,0,1,4.87,4.87v5a0,0,0,0,1,0,0H377.35a0,0,0,0,1,0,0v-5A4.87,4.87,0,0,1,382.21,177.18Z" transform="translate(600.02 -235.74) rotate(90)"/><path class="cls-1" d="M.28,177.18H71.62a4.87,4.87,0,0,1,4.87,4.87v5a0,0,0,0,1,0,0H-4.59a0,0,0,0,1,0,0v-5A4.87,4.87,0,0,1,.28,177.18Z" transform="translate(-146.19 218.09) rotate(-90)"/><circle class="cls-1" cx="83.04" cy="283.53" r="6.28"/><circle class="cls-1" cx="370.79" cy="283.53" r="6.28"/><circle class="cls-1" cx="226.91" cy="66.06" r="6.28"/><circle class="cls-5" cx="368.44" cy="82.89" r="20.49"/><polygon class="cls-1" points="412.92 179.98 316.61 179.98 312.27 179.98 141.55 179.98 137.21 179.98 40.9 179.98 40.9 184.3 137.21 184.3 137.21 323.38 141.55 323.38 141.55 184.3 312.27 184.3 312.27 323.38 316.61 323.38 316.61 184.3 412.92 184.3 412.92 179.98"/><g class="cls-6"><path class="cls-7" d="M403.72,193a81.13,81.13,0,1,1-81.15-81.1A81.12,81.12,0,0,1,403.72,193Z"/></g><path class="cls-8" d="M313.71,104.06a76.74,76.74,0,1,0,76.74,76.74A76.75,76.75,0,0,0,313.71,104.06Zm0,132.48a55.74,55.74,0,1,1,55.73-55.74A55.8,55.8,0,0,1,313.71,236.54Z"/><path class="cls-9" d="M376.27,180.79a62.57,62.57,0,1,1-125.13,0,61,61,0,0,1,1.93-15.33,62.55,62.55,0,0,1,123.2,15.33Z"/><path class="cls-3" d="M313.71,121.19a59.6,59.6,0,1,1-59.6,59.6A57.93,57.93,0,0,1,256,166.18a59.72,59.72,0,0,1,57.76-45m0-3.65a63.36,63.36,0,0,0-61.3,47.75,61.81,61.81,0,0,0-1.95,15.5,63.25,63.25,0,1,0,63.25-63.25Z"/><g class="cls-6"><path class="cls-7" d="M228.66,193a81.12,81.12,0,1,1-81.14-81.1A81.11,81.11,0,0,1,228.66,193Z"/></g><path class="cls-8" d="M138.65,104.06A76.74,76.74,0,1,0,215.4,180.8,76.74,76.74,0,0,0,138.65,104.06Zm0,132.48a55.74,55.74,0,1,1,55.74-55.74A55.8,55.8,0,0,1,138.65,236.54Z"/><path class="cls-9" d="M201.22,180.79a62.57,62.57,0,1,1-125.13,0A61,61,0,0,1,78,165.46a62.55,62.55,0,0,1,123.2,15.33Z"/><path class="cls-3" d="M138.65,121.19a59.6,59.6,0,1,1-59.6,59.6,58.38,58.38,0,0,1,1.84-14.61,59.72,59.72,0,0,1,57.76-45m0-3.65a63.39,63.39,0,0,0-61.3,47.75,62.28,62.28,0,0,0-1.94,15.5,63.25,63.25,0,1,0,63.24-63.25Z"/><circle class="cls-10" cx="313.71" cy="180.79" r="29"/><circle class="cls-10" cx="138.65" cy="180.79" r="29"/><circle class="cls-11" cx="154.83" cy="156.49" r="12.7"/><circle class="cls-11" cx="329.89" cy="156.49" r="12.7"/><path class="cls-1" d="M312.27,40.91V81.77a100.32,100.32,0,0,0-72.71,33.61H214.3A100.51,100.51,0,0,0,142,81.82V40.9h-4.33V81.77A99.56,99.56,0,0,0,86.17,97.06l-34-31.27c-.85,1.18-1.66,2.4-2.42,3.64l36,33.1,0,0a95.88,95.88,0,0,1,126,16.46l.65.74h29.18l.65-.74a96,96,0,0,1,72.27-32.89h2.17V40.91Z"/><path class="cls-5" d="M1899.11,280.92H1758.56V251.65l81.53-77.75q19.44-18.35,19.44-39.32,0-14.55-9-23.29t-24.15-8.74q-16.59,0-25,9.6t-8.44,25.32l.87,9.6h-35.21a77.72,77.72,0,0,1-.58-10.19q0-30,18.77-48.45T1826.36,70q32,0,50.48,17.75t18.48,46q0,20.08-8,35.49t-27.22,32.29l-52.95,46.87h92Z"/><path class="cls-10" d="M557.9,280.92H487.77V74.32H557.9q52.38,0,81.62,28.37t29.24,74.93q0,46.56-29.24,74.93T557.9,280.92Zm54.85-51.36q18.76-18.76,18.77-51.94t-18.77-51.94q-18.76-18.77-56-18.77H523V248.33h33.76Q594,248.33,612.75,229.56Z"/><path class="cls-10" d="M826.87,215.45H711.93q2,18,13.1,28.66t29.1,10.62a40.72,40.72,0,0,0,21.53-5.82,32.61,32.61,0,0,0,13.68-15.71h34.91a70.46,70.46,0,0,1-26,37.1q-19.07,14.11-45,14.11-33.75,0-54.56-22.41t-20.8-56.74q0-33.45,21-56.15T753,126.41q33.18,0,53.69,22.26t20.51,56ZM753,154.63q-16.29,0-27.06,9.61t-13.38,25.6h80.31q-2.34-16-12.81-25.6T753,154.63Z"/><path class="cls-10" d="M915.19,250.08v30q-6.41,1.74-18,1.74-44.24,0-44.23-44.52V157.54h-23V129.9h23V90.62h34.63V129.9h28.22v27.64H887.55v76.24q0,17.76,16.88,17.75Z"/><path class="cls-10" d="M1075.48,215.45H960.54q2,18,13.09,28.66t29.1,10.62a40.72,40.72,0,0,0,21.53-5.82,32.55,32.55,0,0,0,13.68-15.71h34.92a70.48,70.48,0,0,1-26,37.1q-19.05,14.11-44.95,14.11-33.76,0-54.56-22.41t-20.8-56.74q0-33.45,20.94-56.15t54.13-22.7q33.16,0,53.68,22.26t20.52,56Zm-73.91-60.82q-16.3,0-27.06,9.61t-13.39,25.6h80.31q-2.33-16-12.8-25.6T1001.57,154.63Z"/><path class="cls-10" d="M1086.1,205.56q0-33.47,21.24-56.31t54.13-22.84q31.13,0,49.61,17.6t22,40.59h-35.5a36,36,0,0,0-13-20.08q-9.75-7.56-23.42-7.56-18.33,0-29.39,13.53t-11.06,35.07q0,21.52,11.06,34.91t29.39,13.39q13.66,0,23.42-7.57a35.88,35.88,0,0,0,13-20.08h35.5q-3.49,23-22,40.6t-49.61,17.6q-32.9,0-54.13-22.84T1086.1,205.56Z"/><path class="cls-10" d="M1322.58,250.08v30q-6.4,1.74-18,1.74-44.22,0-44.23-44.52V157.54h-23V129.9h23V90.62h34.63V129.9h28.23v27.64h-28.23v76.24q0,17.76,16.88,17.75Z"/><path class="cls-10" d="M1428.44,128.74V161a55.4,55.4,0,0,0-7.85-.59q-39,0-39,41.91v78.56H1347v-151h32v20.95q12.8-22.41,44.51-22.41Z"/><path class="cls-10" d="M1507.79,284.41q-34.92,0-56.6-23t-21.67-55.86q0-32.9,21.67-56t56.6-23.13q35.2,0,56.89,23.13t21.68,56q0,32.88-21.68,55.86T1507.79,284.41Zm-43.65-78.85q0,21.52,12.37,34.91t31.28,13.39q19.2,0,31.57-13.39t12.37-34.91q0-21.84-12.37-35.21T1507.79,157q-18.91,0-31.28,13.39T1464.14,205.56Z"/><path class="cls-10" d="M1631.22,129.9V150q5.25-9.9,17.32-16.74t29.24-6.83q26.78,0,41.47,16.29t14.69,43.36v94.86h-34.63v-90.5q0-16-7.42-25.17t-22.55-9.16q-16.58,0-26,9.89t-9.46,27.35v87.59h-34.62v-151Z"/></svg>